<?xml version="1.0" encoding="utf-8" ?><svg xmlns="http://www.w3.org/2000/svg" xmlns:xlink="http://www.w3.org/1999/xlink" width="2000" height="2000" viewBox="0 0 2000 2000"><path fill="#1A1A1B" d="M436.381 692.001C436.434 622.514 455.441 561.299 504.057 510.06C555.84 455.485 618.93 436.809 692.18 434.634C745.289 433.584 798.41 433.24 851.528 433.602L1072.41 433.574L1220.85 433.652C1316.97 433.909 1409.3 429.616 1483.45 502.721C1536.67 555.2 1556.77 613.756 1558.84 687.002C1560.74 705.218 1559.67 738.53 1559.63 757.785L1559.58 883.008L1559.61 1094.19C1559.62 1126.35 1560.7 1165.25 1559.65 1196.69C1559.99 1201.42 1559.98 1215.16 1559.55 1220.19C1556.08 1228.25 1557.34 1290.43 1558.78 1301.84C1558.1 1379.09 1540.69 1440.1 1484.15 1495.54C1410.69 1567.58 1324.34 1566.07 1229.06 1566.17L1112.94 1566.24L729.958 1566.1C643.401 1565.51 570.003 1556.13 505.624 1490.58C447.325 1431.23 435.859 1366.44 436.421 1287.43C435.034 1282.08 435.346 1258.14 435.317 1251.54L435.201 1176.69L435.211 869.343L435.248 750.562C435.238 738.953 434.555 701.378 436.381 692.001Z"/><path fill="#0C0C0C" d="M436.421 1287.43C435.034 1282.08 435.346 1258.14 435.317 1251.54L435.201 1176.69L435.211 869.343L435.248 750.562C435.238 738.953 434.555 701.378 436.381 692.001C438.744 735.415 437.596 787.091 437.607 831.091L436.48 1104C436.455 1115.53 437.275 1127.38 437.39 1139L437.523 1232.79C437.488 1245.84 437.904 1276.05 436.421 1287.43Z"/><path fill="#0C0C0C" d="M1558.84 687.002C1560.74 705.218 1559.67 738.53 1559.63 757.785L1559.58 883.008L1559.61 1094.19C1559.62 1126.35 1560.7 1165.25 1559.65 1196.69C1556.22 1188.71 1557.59 1102.88 1557.58 1088.62L1557.6 903.527L1557.58 771.938C1557.58 744.222 1556.83 714.395 1558.84 687.002Z"/><defs><linearGradient id="gradient_0" gradientUnits="userSpaceOnUse" x1="1292.7316" y1="1165.3344" x2="818.94464" y2="841.3548"><stop offset="0" stop-color="#E73316"/><stop offset="1" stop-color="#F69315"/></linearGradient></defs><path fill="url(#gradient_0)" d="M998.42 623.353C1009.82 628.236 1022.91 635.562 1034.19 641.443L1086.26 668.539L1251.46 754.881C1262.21 760.541 1317.42 787.285 1322.43 792.296C1326.44 815.014 1324.31 855.176 1324.31 879.126L1324.28 1017.31C1324.27 1031.37 1325.27 1117.59 1322.82 1126.03C1314.55 1133.66 1296.36 1145.75 1286.57 1152.67C1265.13 1167.73 1243.78 1182.92 1222.52 1198.25L1081.46 1298.7C1073.28 1304.54 1002.14 1358.31 996.651 1355.35C975.833 1344.12 947.588 1322.31 927.829 1308.23L742.184 1176.16C721.481 1161.49 693.274 1142.49 673.327 1126.36C669.609 1123.35 670.352 1098.5 670.984 1092.1C669.656 1026.81 670.866 958.094 670.822 892.515L670.769 831.751C670.766 821.924 670.242 802.986 671.928 794.141C679.198 787.869 693.814 780.843 702.65 776.219L746.667 753.217C805.582 722.336 867.417 689.268 926.727 659.803C936.813 653.937 989.364 626.133 998.42 623.353Z"/><path fill="#1A1A1B" d="M998.328 828.445C1039.36 850.055 1081.21 870.601 1122.46 891.814C1126.6 893.944 1130.55 896.36 1134.57 898.697L1134.74 1068.93C1095.18 1091.71 1054.9 1113.45 1015.16 1135.94C1009.73 1139.02 1003.93 1142.34 998.376 1145.15C952.691 1120.64 906.351 1092.77 861.423 1069.17C859.444 1029.43 862.136 985.111 861.201 944.967C861.057 938.819 861.751 909.325 860.526 904.976C860.818 902.808 861.091 901.69 861.633 899.562C868.08 892.99 900.267 878.409 910.817 872.448C937.299 860.735 971.355 841.82 998.328 828.445Z"/><path fill="#F89A16" d="M926.727 659.803C933.374 659.276 942.276 652.929 949.645 650.761C953.207 654.026 954.366 660.813 959.207 664.514C961.427 666.211 962.462 667.244 962.923 669.671C961.797 671.094 960.764 672.545 959.782 674.071C913.96 698.948 867.2 722.055 821.133 746.377L754.749 781.042C743.043 787.199 725.791 796.899 714.291 801.992C732.707 813.648 759.06 827.311 778.673 837.95C798.11 848.494 825.027 864.652 844.643 873.499C851.616 870.439 877.636 856.622 880.764 855.852C889.963 856.932 900.588 843.053 908.765 844.783C910.423 847.445 909.911 848.936 909.088 852.49C908.734 853.964 908.361 855.434 907.969 856.899L908.617 857.745C917.603 856.795 915.921 848.221 928.07 856.21C929.335 857.042 928.965 857.637 929.08 859.634C925.238 867.011 915.665 865.028 910.817 872.448C900.267 878.409 868.08 892.99 861.633 899.562C861.091 901.69 860.818 902.808 860.526 904.976C857.363 918.848 864.645 967.656 855.383 974.346C845.542 973.465 841.448 965.36 832.823 977.603L833.557 978.421C841.898 987.561 843.732 990.821 833.579 1000.4C833.413 1008.74 834.328 1036.5 832.961 1042.35C832.808 1038.98 832.792 1026.46 831.352 1024.69C830.974 1032.82 831.265 1044.62 831.235 1052.98C808.575 1038.98 774.487 1020.78 750.662 1008.3C756.666 1018.1 776.441 1019.94 776.988 1026.79C774.359 1031.77 764.342 1040.88 759.714 1044.48C752.489 1040.31 717.78 1019.66 712.734 1020.18C708.651 1018.23 705.181 1016.57 701.212 1014.34C699.788 1032.63 700.914 1051.56 700.69 1069.89C700.623 1075.4 701.028 1088.06 700.348 1093.1C697.175 1101.38 700.99 1104.93 697.463 1110.05C690.044 1113.41 688.208 1114.98 682.13 1120.34C678.255 1120.35 677.958 1121.45 674.3 1122.47C668.568 1117.58 674.874 1097.72 670.984 1092.1C669.656 1026.81 670.866 958.094 670.822 892.515L670.769 831.751C670.766 821.924 670.242 802.986 671.928 794.141C679.198 787.869 693.814 780.843 702.65 776.219L746.667 753.217C805.582 722.336 867.417 689.268 926.727 659.803Z"/><path fill="#1A1A1B" d="M701.014 828.127C714.151 834.587 732.512 845.519 745.748 852.8C774.502 868.333 803.131 884.097 831.632 900.092C831.526 906.038 831.576 911.013 831.834 916.953C833.841 928.125 833.626 965.829 832.823 977.603L833.557 978.421C841.898 987.561 843.732 990.821 833.579 1000.4C833.413 1008.74 834.328 1036.5 832.961 1042.35C832.808 1038.98 832.792 1026.46 831.352 1024.69C830.974 1032.82 831.265 1044.62 831.235 1052.98C808.575 1038.98 774.487 1020.78 750.662 1008.3C736.181 999.003 716.335 988.764 700.952 980.504C700.638 972.784 700.573 964.914 700.646 957.182C701.05 914.26 699.891 871.016 701.014 828.127Z"/><path fill="#F88D16" d="M831.834 916.953C833.841 928.125 833.626 965.829 832.823 977.603L833.557 978.421C841.898 987.561 843.732 990.821 833.579 1000.4C833.413 1008.74 834.328 1036.5 832.961 1042.35C832.808 1038.98 832.792 1026.46 831.352 1024.69C830.923 1005.55 831.617 984.852 831.571 965.506C831.536 950.433 831.052 931.663 831.834 916.953Z"/><path fill="#1A1A1B" d="M998.304 654.524C1028.29 670.398 1058.37 686.102 1088.54 701.637C1101.68 708.436 1122.67 718.433 1134.54 725.794C1116.93 734.057 1097.11 744.778 1079.57 753.723L971.991 808.732L913.131 838.696C904.576 843.048 888.165 850.916 880.764 855.852C877.636 856.622 851.616 870.439 844.643 873.499C825.027 864.652 798.11 848.494 778.673 837.95C759.06 827.311 732.707 813.648 714.291 801.992C725.791 796.899 743.043 787.199 754.749 781.042L821.133 746.377C867.2 722.055 913.96 698.948 959.782 674.071C972.904 667.672 985.35 661.046 998.304 654.524Z"/><path fill="#1A1A1B" d="M701.212 1014.34C705.181 1016.57 708.651 1018.23 712.734 1020.18C715.894 1022.97 730.877 1030.81 735.207 1033.19L784.221 1060.15C845.141 1093.56 908.551 1127.85 968.643 1162.52C932.674 1181.91 896.531 1204.03 860.305 1223.63C823.787 1198.23 787.449 1172.57 751.294 1146.65C735.547 1135.45 716.809 1120.94 700.809 1111C700.682 1105.26 700.688 1098.77 700.348 1093.1C701.028 1088.06 700.623 1075.4 700.69 1069.89C700.914 1051.56 699.788 1032.63 701.212 1014.34Z"/><path fill="#1A1A1B" d="M1293.12 1014.63C1293.22 1014.7 1293.35 1014.75 1293.43 1014.85C1296.15 1018.47 1294.75 1100.2 1294.83 1110.55L1101.87 1248.32C1067.73 1272.61 1032.62 1298.25 998.185 1321.9C978.675 1309.43 953.087 1290.81 934.85 1277.03C918.772 1266.8 902.756 1254.02 886.507 1243.3C953.748 1204.57 1021.27 1166.32 1089.06 1128.57L1293.12 1014.63Z"/><path fill="#1A1A1B" d="M1292.79 828.952L1294.24 829.995C1295.43 836.547 1294.83 867.697 1294.83 876.037L1294.71 980.252C1279.94 987.472 1259.45 999.718 1244.67 1007.94C1218.34 1022.43 1192.09 1037.07 1165.92 1051.84L1164.64 1050.66C1163.46 1040.2 1164.12 1012.26 1164.12 1000.45L1164.12 900.017C1205.68 877.06 1252.64 852.903 1292.79 828.952Z"/><path fill="#1A1A1B" d="M1165.31 742.942C1170.87 743.26 1266.66 794.546 1281.65 802.006C1271.19 809.062 1156.19 872.367 1149.94 873.109C1109.97 854.486 1069.89 831.322 1029.91 811.942C1074.36 788.481 1120.51 766.187 1165.31 742.942Z"/><path fill="#0C0C0C" fill-opacity="0.98823529" d="M1558.78 1301.84C1557.34 1290.43 1556.08 1228.25 1559.55 1220.19C1559.63 1231.74 1560.69 1294 1558.78 1301.84Z"/></svg>